<?xml version="1.0" encoding="UTF-8" standalone="no"?>
<svg width="91px" height="79px" viewBox="0 0 91 79" version="1.1" xmlns="http://www.w3.org/2000/svg" xmlns:xlink="http://www.w3.org/1999/xlink" xmlns:sketch="http://www.bohemiancoding.com/sketch/ns">
    <!-- Generator: Sketch 3.4 (15575) - http://www.bohemiancoding.com/sketch -->
    <title>Cloud</title>
    <desc>Created with Sketch.</desc>
    <defs></defs>
    <g id="Website" stroke="none" stroke-width="1" fill="none" fill-rule="evenodd" sketch:type="MSPage">
        <g id="Desktop-HD" sketch:type="MSArtboardGroup" transform="translate(-994.000000, -1022.000000)" fill="#000000">
            <g id="Services" sketch:type="MSLayerGroup" transform="translate(100.000000, 928.000000)">
                <g id="Cloud-+-Don’t-let-our-profes-Copy-2-+-INFRASTRUCTURE" transform="translate(640.000000, 94.000000)" sketch:type="MSShapeGroup">
                    <g id="Cloud" transform="translate(253.785714, 0.000000)">
                        <path d="M82.4126984,69.968254 L57.015873,69.968254 C56.3809524,69.968254 55.7460317,69.4603175 55.7460317,68.6984127 L55.7460317,67.6825397 C55.7460317,67.047619 55.2380952,66.4126984 54.4761905,66.4126984 L49.3968254,66.4126984 C48.7619048,66.4126984 48.1269841,65.9047619 48.1269841,65.1428571 L48.1269841,56.6349206 C48.1269841,56 48.6349206,55.3650794 49.3968254,55.3650794 L75.5555556,55.3650794 L75.5555556,55.3650794 C80,54.984127 84.3174603,52.952381 87.2380952,49.015873 C91.8095238,43.1746032 91.8095238,34.7936508 87.2380952,28.952381 C83.8095238,24.6349206 78.984127,22.6031746 74.031746,22.6031746 C73.5238095,19.3015873 72,16.1269841 69.4603175,13.5873016 C65.6507937,9.77777778 60.3174603,8.25396825 55.3650794,9.01587302 C54.7301587,8.25396825 54.0952381,7.49206349 53.3333333,6.73015873 C44.5714286,-2.03174603 30.3492063,-2.03174603 21.4603175,6.73015873 C17.015873,11.1746032 14.8571429,17.015873 14.8571429,22.7301587 C6.85714286,23.8730159 0.634920635,30.8571429 0.634920635,39.2380952 C0.634920635,47.8730159 7.23809524,54.984127 15.7460317,55.6190476 L15.7460317,55.6190476 L41.9047619,55.6190476 C42.5396825,55.6190476 43.1746032,56.1269841 43.1746032,56.8888889 L43.1746032,65.3968254 C43.1746032,66.031746 42.6666667,66.6666667 41.9047619,66.6666667 L36.8253968,66.6666667 C36.1904762,66.6666667 35.5555556,67.1746032 35.5555556,67.9365079 L35.5555556,68.952381 C35.5555556,69.5873016 35.047619,70.2222222 34.2857143,70.2222222 L8.88888889,70.2222222 C7.61904762,70.2222222 6.47619048,71.1111111 6.22222222,72.3809524 C5.96825397,74.031746 7.23809524,75.3015873 8.76190476,75.3015873 L34.2857143,75.3015873 C34.9206349,75.3015873 35.5555556,75.8095238 35.5555556,76.5714286 L35.5555556,77.5873016 C35.5555556,78.2222222 36.0634921,78.8571429 36.8253968,78.8571429 L54.6031746,78.8571429 C55.2380952,78.8571429 55.8730159,78.3492063 55.8730159,77.5873016 L55.8730159,76.5714286 C55.8730159,75.9365079 56.3809524,75.3015873 57.1428571,75.3015873 L82.5396825,75.3015873 C84.0634921,75.3015873 85.3333333,73.9047619 85.0793651,72.3809524 C84.8253968,70.8571429 83.6825397,69.968254 82.4126984,69.968254 L82.4126984,69.968254 Z" id="Shape"></path>
                    </g>
                </g>
            </g>
        </g>
    </g>
</svg>