<svg width="91" height="79" viewBox="0 0 91 79" xmlns="http://www.w3.org/2000/svg"><title>Cloud</title><path d="M82.198 69.968H56.802c-.635 0-1.27-.508-1.27-1.27v-1.015c0-.635-.508-1.27-1.27-1.27h-5.08c-.634 0-1.27-.508-1.27-1.27v-8.508c0-.635.51-1.27 1.27-1.27h26.16c4.444-.38 8.76-2.413 11.682-6.35 4.57-5.84 4.57-14.22 0-20.063-3.43-4.317-8.254-6.35-13.207-6.35-.507-3.3-2.03-6.475-4.57-9.015-3.81-3.81-9.144-5.333-14.096-4.57-.634-.763-1.27-1.525-2.03-2.287-8.763-8.762-22.985-8.762-31.874 0-4.444 4.445-6.603 10.286-6.603 16C6.643 23.873.42 30.857.42 39.238c0 8.635 6.604 15.746 15.112 16.38H41.69c.635 0 1.27.51 1.27 1.27v8.51c0 .634-.508 1.27-1.27 1.27h-5.08c-.634 0-1.27.507-1.27 1.27v1.014c0 .635-.507 1.27-1.27 1.27H8.676c-1.27 0-2.413.89-2.667 2.16-.254 1.65 1.016 2.92 2.54 2.92H34.07c.636 0 1.27.508 1.27 1.27v1.015c0 .635.51 1.27 1.27 1.27h17.78c.634 0 1.27-.508 1.27-1.27V76.57c0-.633.507-1.268 1.27-1.268h25.395c1.524 0 2.794-1.397 2.54-2.92-.254-1.525-1.397-2.414-2.667-2.414z" fill="#000" fill-rule="evenodd"/></svg>