<svg width="80" height="80" viewBox="0 0 80 80" xmlns="http://www.w3.org/2000/svg"><title>Network</title><path d="M76.117 17.664c2.145 0 3.883-1.74 3.883-3.883 0-2.144-1.738-3.882-3.883-3.882-2.05 0-3.712 1.594-3.855 3.608l-14.427 2.482c-.738-1.455-2.107-2.53-3.76-2.835l-.21-6.432c1.267-.524 2.16-1.77 2.16-3.226C56.025 1.564 54.46 0 52.532 0c-1.93 0-3.494 1.564-3.494 3.494 0 1.634 1.126 2.995 2.642 3.377l.206 6.337c-1.258.294-2.34 1.033-3.077 2.046L37.38 7.928c0-.044.013-.084.013-.127 0-2.144-1.738-3.882-3.883-3.882S29.627 5.656 29.627 7.8s1.738 3.883 3.883 3.883c1.298 0 2.437-.64 3.143-1.618l11.243 7.205c-.076.358-.12.73-.12 1.11 0 .89.24 1.715.625 2.453L28.756 40.57c-.956-.91-2.24-1.477-3.666-1.477-1.08 0-2.083.326-2.922.88l-9.15-9.09c.683-.764 1.11-1.76 1.11-2.863 0-2.383-1.933-4.314-4.315-4.314-2.383 0-4.315 1.93-4.315 4.314 0 2.382 1.932 4.315 4.315 4.315.466 0 .907-.093 1.327-.23l9.485 9.424c-.542.833-.863 1.822-.863 2.89 0 .264.04.518.078.772l-12.556 4.64c-.616-.995-1.708-1.665-2.965-1.665-1.93 0-3.496 1.565-3.496 3.493 0 1.93 1.565 3.494 3.495 3.494 1.818 0 3.295-1.395 3.46-3.172l12.87-4.734c.757 1.2 2.364 2.082 3.46 2.382v7.86c-1.096.462-2.457 1.757-2.457 3.3 0 1.932 1.535 3.496 3.466 3.496 1.93 0 3.538-1.565 3.538-3.495 0-1.543-1.26-2.838-2.356-3.3v-7.86c1.096-.365 3.116-1.587 3.775-3.206l17.766 3.652c-.013.13-.053.258-.053.394 0 2.145 1.73 3.883 3.875 3.883.31 0 .605-.046.893-.114l3.664 7.244c-1.01.7-1.676 1.866-1.676 3.19 0 .57.128 1.107.348 1.594l-5.558 5.558c-.472-.237-.997-.384-1.562-.384-1.93 0-3.495 1.564-3.495 3.494 0 1.93 1.565 3.494 3.494 3.494 1.93 0 3.495-1.565 3.495-3.494 0-.564-.148-1.09-.386-1.562l5.444-5.443c.607.392 1.324.625 2.098.625 1.073 0 2.043-.434 2.746-1.137l10.193 6.83c-.31.52-.498 1.12-.498 1.77 0 1.932 1.565 3.495 3.495 3.495 1.93 0 3.494-1.565 3.494-3.494 0-1.93-1.566-3.495-3.494-3.495-.446 0-.87.09-1.262.244L62.22 65.48c.057-.262.09-.532.09-.81 0-2.145-1.74-3.883-3.884-3.883-.033 0-.063.008-.095.01l-3.87-7.655c.664-.697 1.08-1.636 1.08-2.676 0-2.146-1.74-3.884-3.884-3.884-1.208 0-2.272.562-2.984 1.427L30.4 44.266c-.02-.655-.148-1.28-.384-1.856L49.8 22.533c.91.723 2.047 1.173 3.3 1.173 1.12 0 2.155-.348 3.013-.938l10.104 9.993c-.23.467-.374.986-.374 1.542 0 1.93 1.565 3.494 3.494 3.494 1.93 0 3.494-1.565 3.494-3.494 0-1.928-1.564-3.493-3.493-3.493-.57 0-1.104.15-1.58.392l-10.14-10.027c.505-.814.81-1.766.81-2.794 0-.09-.024-.175-.027-.265l14.333-2.466c.662 1.195 1.92 2.014 3.384 2.014z" fill="#000" fill-rule="evenodd"/></svg>