<svg width="74" height="80" viewBox="0 0 74 80" xmlns="http://www.w3.org/2000/svg"><title>Robot</title><g fill="#000" fill-rule="evenodd"><path d="M54.302 64.114c0 .63-.55 1.138-1.226 1.138h-9.774c-.676 0-1.225-.51-1.225-1.138v-5.367c0-.628.55-1.137 1.225-1.137h9.774c.677 0 1.226.51 1.226 1.137v5.367zM55.135 76.575L53.72 66.82h-11l-1.412 9.755H38.65V80h19.08v-3.425h-2.595zM31.825 64.114c0 .63-.548 1.138-1.227 1.138h-9.772c-.674 0-1.227-.51-1.227-1.138v-5.367c0-.628.553-1.137 1.226-1.137h9.77c.68 0 1.228.51 1.228 1.137v5.367zM32.626 76.575l-1.412-9.754h-11l-1.416 9.755h-2.623V80h19.08v-3.425h-2.63zM51.71 56.105v-4.132h5.523c.632 0 1.145-.508 1.145-1.14V44.14c0-.63-.513-1.14-1.145-1.14H16.65c-.633 0-1.143.51-1.143 1.14v6.696c0 .63.51 1.14 1.144 1.14h5.54v4.13h7.046v-4.13h15.43v4.13h7.045zM48.866 0H25.2c-.74 0-1.34.6-1.34 1.334v13.702c0 .738.6 1.333 1.34 1.333h23.666c.74 0 1.34-.596 1.34-1.334v-13.7c0-.737-.6-1.336-1.34-1.336zM30.73 10.103c-1.87 0-3.385-1.51-3.385-3.37 0-1.865 1.516-3.375 3.386-3.375s3.387 1.51 3.387 3.374c0 1.86-1.518 3.37-3.386 3.37zm12.607 0c-1.87 0-3.39-1.51-3.39-3.37 0-1.865 1.52-3.375 3.39-3.375s3.385 1.51 3.385 3.374c0 1.86-1.516 3.37-3.385 3.37zM22.99 12.796h-.89c-.63 0-1.14-.51-1.14-1.137V4.712c0-.63.51-1.14 1.14-1.14h.89v9.223zM20.28 11.283h-.624c-.63 0-1.144-.51-1.144-1.14V6.23c0-.63.513-1.138 1.144-1.138h.625v6.193zM50.892 12.796h.89c.63 0 1.142-.51 1.142-1.137V4.712c0-.63-.51-1.14-1.143-1.14h-.888v9.223zM53.603 11.283h.624c.63 0 1.145-.51 1.145-1.14V6.23c0-.63-.515-1.138-1.145-1.138h-.624v6.193z"/><path d="M69.855 44.956V32.182c0-5.962-4.874-10.814-10.86-10.814h-.617v-.69c0-.63-.513-1.14-1.145-1.14H16.65c-.633 0-1.143.512-1.143 1.14v.69h-.618c-5.987 0-10.86 4.852-10.86 10.814v12.774c-2.316.98-3.95 3.267-3.95 5.93h2.067c0-2.422 1.973-4.383 4.402-4.383 2.425 0 4.398 1.96 4.398 4.382h2.065c0-2.62-1.58-4.873-3.838-5.877V32.182c0-3.14 2.557-5.692 5.713-5.692h.618v13.095c0 .63.51 1.137 1.144 1.137h40.583c.632 0 1.145-.507 1.145-1.137V26.49h.616c3.156 0 5.715 2.55 5.715 5.692v12.826c-2.26 1.004-3.84 3.257-3.84 5.877h2.063c0-2.42 1.972-4.382 4.403-4.382 2.43 0 4.402 1.96 4.402 4.382h2.065c0-2.662-1.632-4.95-3.948-5.93zm-39.278-8.43h-2.29v-7.73h2.29v7.73zm3.758 0H32.04v-7.73h2.295v7.73zm3.753 0h-2.292v-7.73h2.292v7.73zm3.753 0h-2.29v-7.73h2.29v7.73zm3.76 0h-2.294v-7.73H45.6v7.73z"/></g></svg>