<svg width="108" height="80" viewBox="0 0 108 80" xmlns="http://www.w3.org/2000/svg"><title>Terminal</title><path d="M23.566 21.522c.132-.482.007-1.017-.37-1.395l-8.75-8.766c-.55-.55-1.467-.56-2.026 0-.563.564-.56 1.47 0 2.03l8.11 8.128-8.108 8.126c-.55.552-.56 1.47 0 2.03.563.565 1.466.56 2.026 0l8.75-8.767c.368-.37.494-.904.368-1.385zM0 11.04C0 4.943 4.928 0 11.01 0H96.36c6.08 0 11.01 4.944 11.01 11.04v57.92c0 6.097-4.927 11.04-11.01 11.04H11.01C4.93 80 0 75.056 0 68.96V11.04zm25.655 19.72c0-.67.54-1.21 1.205-1.21h13.278c.666 0 1.205.537 1.205 1.21 0 .667-.54 1.208-1.205 1.208H26.86c-.665 0-1.205-.536-1.205-1.21z" fill="#000" fill-rule="evenodd"/></svg>